<?xml version="1.0" encoding="utf-8"?>
<!-- Generator: Adobe Illustrator 24.0.3, SVG Export Plug-In . SVG Version: 6.00 Build 0)  -->
<svg version="1.1" id="Layer_1" xmlns="http://www.w3.org/2000/svg" xmlns:xlink="http://www.w3.org/1999/xlink" x="0px" y="0px"
	 viewBox="0 0 400 80" style="enable-background:new 0 0 400 80;" xml:space="preserve">
<style type="text/css">
	.st0{fill:#FFFFFF;}
</style>
<path class="st0" d="M361.9,63l27.3-42.4h-9.4l-26.9,41.4c-0.7,1.1-1,2.1-1,3c0,2.1,1,3,3,3h38l-1.6-5.1H361.9z"/>
<path class="st0" d="M381.7,17.6L381.7,17.6l9.4,0c0.6-1,0.9-1.9,0.9-2.6c0-1.6-1.2-2.5-3.8-2.5h-36.6l1.5,5.1H381.7z"/>
<path class="st0" d="M327.4,68.4c-17.1,0-20.4-3.6-20.4-16.8V13h34.8l-1.5,5.1h-25v18h18.5l-1.5,4.8h-17.1v10.7
	c0,10,2.5,11.8,12.1,11.8h13l1.5,5H327.4z"/>
<g>
	<path class="st0" d="M88.6,63.7c-9.7,0-12.3-1.8-12.3-11.9V40.9h17.4l1.5-4.9H76.3V17.8h25.5l1.5-5.1H67.9v39
		c0,13.3,3.3,17,20.7,17h14.8l-1.5-5.1H88.6z"/>
	<path class="st0" d="M153.4,12.7h-2.2v42.8l-28.3-40.1c-1.3-1.8-3.1-2.7-5.3-2.7h-3.4v50.9c0,3.4,1.4,5.1,4.3,5.1h2.1V26.2
		l28.6,39.4c1.5,2.1,3.4,3.1,5.7,3.1h2.8V17.8C157.5,14.4,156.1,12.7,153.4,12.7z"/>
	<path class="st0" d="M166.2,12.7l-1.6,5.1h19.5v45.7c0,3.4,1.9,5.1,5.7,5.1h2.8V17.8h17.9l1.5-5.1H166.2z"/>
	<path class="st0" d="M300.9,63.7h-12.5c-10.1,0-12.5-2.1-12.5-11.8V17.8c0-3.4-1.8-5.1-5.5-5.1h-3v39.2c0,13.3,3.3,16.8,21.1,16.8
		h14L300.9,63.7z"/>
	<path class="st0" d="M31.5,12.5H7.9l-2.3,5.1l15.9,0h10c10.6,0,15.4,5.4,15.4,18.3v9.5c0,12.8-4.6,17.8-15.4,17.8h-10V20.9h-8.3
		v42.2c0,3.4,1.8,5.1,5.5,5.1h2.8h10c16.2,0,23.8-6.8,23.8-22.8v-9.6C55.2,20.2,47.3,12.5,31.5,12.5z"/>
	<path class="st0" d="M236.2,12.5L236.2,12.5L236.2,12.5c-2.5,0-4,0.8-4.3,1.8l-21,55.4h3.5c4.6,0,6-0.7,7-3.4L236.1,24l14.8,42.2
		c1,2.8,2.4,3.4,7,3.4h3.5l-21-55.4C240.1,13.3,238.6,12.5,236.2,12.5z"/>
</g>
</svg>
